<?xml version="1.0" encoding="UTF-8" standalone="no"?>
<svg
   version="1.1"
   width="240.9361"
   height="125.4968"
   id="svg4"
   viewBox="0 0 240.9361 125.49681"
   sodipodi:docname="1f051a7b2cf6e611b14552a6367f29c9.cdr"
   xmlns:inkscape="http://www.inkscape.org/namespaces/inkscape"
   xmlns:sodipodi="http://sodipodi.sourceforge.net/DTD/sodipodi-0.dtd"
   xmlns="http://www.w3.org/2000/svg"
   xmlns:svg="http://www.w3.org/2000/svg">
  <defs
     id="defs8" />
  <sodipodi:namedview
     id="namedview6"
     pagecolor="#ffffff"
     bordercolor="#666666"
     borderopacity="1.0"
     inkscape:pageshadow="2"
     inkscape:pageopacity="0.0"
     inkscape:pagecheckerboard="0" />
  <path
     d="m 175.2851,20.1169 c -22.5819,1.4511 -40.4379,20.219 -40.4379,43.1711 0,22.9198 17.856,41.7209 40.4379,43.1379 v -3.3409 c -20.759,-1.4182 -37.1299,-18.7002 -37.1299,-39.797 0,-21.096 16.3709,-38.412 37.1299,-39.8291 z m 0,41.214 V 52.791 h -2.228 c -6.0761,0 -10.9701,4.894 -10.9701,10.9358 0,6.042 4.894,10.9372 10.9701,10.9372 h 2.228 v -8.439 h -2.194 -0.034 c -1.3499,0 -2.4631,-1.1141 -2.4631,-2.4631 0,-1.351 1.1132,-2.431 2.4631,-2.431 h 0.034 z M 74.3941,22.1768 v 0 V 1.586 h 59.4751 V 18.464 C 144.568,7.6958 159.1171,0.8439 175.2851,0.0669 v 8.6079 c -21.5011,1.046 -39.661,14.6492 -47.391,33.6192 h -2.194 V 10.1599 H 82.866 V 26.261 c -0.3039,2.126 -0.8439,4.1508 -1.552,6.1418 5.1642,4.017 9.6872,8.8112 13.468,14.1772 1.3842,0.1009 2.497,1.283 2.497,2.7 0,1.4519 -1.182,2.6668 -2.6659,2.6668 -1.4851,0 -2.6669,-1.2149 -2.6669,-2.6668 0,-0.235 0,-0.4382 0.0678,-0.6072 -3.4098,-4.894 -7.494,-9.248 -12.1179,-12.9948 -1.756,3.5779 -4.185,6.7838 -7.0891,9.451 6.9202,5.6358 12.3211,13.096 15.4942,21.636 1.0119,0.3719 1.7549,1.3498 1.7549,2.4978 0,1.452 -1.2149,2.6332 -2.7009,2.6332 -1.4842,0 -2.6662,-1.1812 -2.6662,-2.6332 0,-0.5408 0.1692,-1.0808 0.4391,-1.519 C 82.0902,59.6429 76.858,52.5889 70.209,47.2558 66.429,50.057 62.007,52.0489 57.2142,52.96 67.6771,58.496 75.069,69.0599 76.115,81.415 c 0.608,0.4719 1.0131,1.2489 1.0131,2.0928 0,1.4842 -1.1809,2.7 -2.666,2.7 -1.4859,0 -2.6671,-1.2158 -2.6671,-2.7 0,-0.7778 0.3382,-1.4868 0.8782,-1.959 C 71.424,67.879 61.6011,56.6728 48.6391,53.331 c -2.058,-0.2361 -4.083,-0.608 -6.1759,-0.7421 -0.6412,-0.068 -1.2821,-0.068 -1.9241,-0.068 -17.7211,0 -32.1341,14.413 -32.1341,32.1001 0,17.7539 14.413,32.1338 32.1341,32.1338 0.8441,0 1.654,-0.034 2.4979,-0.1009 16.4041,-0.4391 30.8511,-8.6409 39.829,-21.0969 v 20.456 h 42.8341 V 88.1988 h 4.5909 c 8.7092,16.2701 25.4841,27.5432 44.9941,28.488 v 8.6411 c -16.168,-0.7761 -30.7171,-7.628 -41.4159,-18.396 V 124.249 H 74.3941 v -9.1491 c -3.7471,2.7689 -8.9779,5.402 -14.953,7.359 -5.5361,1.823 -10.8349,2.7681 -15.291,2.903 -1.1131,0.1021 -2.2269,0.1349 -3.3409,0.1349 C 18.295,125.4968 0,107.2358 0,84.7219 0,62.2088 18.295,43.9469 40.8092,43.9469 c 3.409,0 6.717,0.4051 9.8558,1.1821 0.0672,0.034 0.1012,0.034 0.1692,0.034 0.2359,0.0669 0.5069,0.1349 0.7419,0.2018 v -0.034 c 4.962,0.845 10.9369,-1.4508 15.7969,-6.6149 4.5581,-4.828 7.0211,-11.0719 7.0211,-16.5391 z m 100.891,1.2821 c 0.911,-0.068 1.8561,-0.102 2.768,-0.102 14.277,0 26.7999,7.4931 33.855,18.7339 h 3.8821 C 208.364,28.927 194.2551,20.05 178.0531,20.05 c -0.9119,0 -1.857,0.034 -2.768,0.0669 z m 0,82.967 c 0.911,0.068 1.8561,0.1009 2.768,0.1009 15.391,0 28.859,-8.0328 36.555,-20.1169 h -4.0161 c -7.257,10.1599 -19.1049,16.7749 -32.5389,16.7749 -0.9119,0 -1.857,-0.0329 -2.768,-0.0998 z m 0,-40.2009 h 65.5841 c -1.823,32.9439 -29.1632,59.1698 -62.614,59.1698 -0.9791,0 -1.991,-0.0329 -2.9701,-0.0669 v -8.6411 c 0.877,0.068 1.7889,0.068 2.6671,0.068 25.7539,0 47.3219,-17.9909 52.757,-42.0908 h -55.4241 z m 0,-66.1581 C 176.2642,0.034 177.2761,0 178.2552,0 c 34.1589,0 61.939,27.341 62.6809,61.3309 h -65.651 V 52.791 H 231.148 C 226.4561,27.644 204.4482,8.6068 177.9522,8.6068 c -0.8782,0 -1.7901,0.0332 -2.6671,0.068 z"
     style="fill:#e3001642;fill-rule:evenodd"
     id="path2" />
</svg>
